<svg version="1.1" xmlns="http://www.w3.org/2000/svg" viewBox="0 0 1457.445667500686 1371.506448275825" width="1457.445667500686" height="1371.506448275825">
  <!-- svg-source:excalidraw -->
  
  <defs>
    <style class="style-fonts">
      @font-face {
        font-family: "Virgil";
        src: url("https://excalidraw.com/Virgil.woff2");
      }
      @font-face {
        font-family: "Cascadia";
        src: url("https://excalidraw.com/Cascadia.woff2");
      }
      @font-face {
        font-family: "Assistant";
        src: url("https://excalidraw.com/Assistant-Regular.woff2");
      }
    </style>
    
  </defs>
  <rect x="0" y="0" width="1457.445667500686" height="1371.506448275825" fill="#ffffff"></rect><g transform="translate(651.8806279773783 335.7582506200384) rotate(359.87757181255796 75.20833587646484 62.5)"><text x="0" y="0" font-family="Virgil, Segoe UI Emoji" font-size="20px" fill="#1e1e1e" text-anchor="start" style="white-space: pre;" direction="ltr" dominant-baseline="text-before-edge">ROOT</text><text x="0" y="25" font-family="Virgil, Segoe UI Emoji" font-size="20px" fill="#1e1e1e" text-anchor="start" style="white-space: pre;" direction="ltr" dominant-baseline="text-before-edge">LP</text><text x="0" y="50" font-family="Virgil, Segoe UI Emoji" font-size="20px" fill="#1e1e1e" text-anchor="start" style="white-space: pre;" direction="ltr" dominant-baseline="text-before-edge">X1 = 34.29</text><text x="0" y="75" font-family="Virgil, Segoe UI Emoji" font-size="20px" fill="#1e1e1e" text-anchor="start" style="white-space: pre;" direction="ltr" dominant-baseline="text-before-edge">x2=14.29</text><text x="0" y="100" font-family="Virgil, Segoe UI Emoji" font-size="20px" fill="#1e1e1e" text-anchor="start" style="white-space: pre;" direction="ltr" dominant-baseline="text-before-edge">OBJ = 4285.71</text></g><g stroke-linecap="round" transform="translate(620.4909052014832 310.2023615096804) rotate(0 102.5 87)"><path d="M32 0 C69.12 0, 106.25 0, 173 0 M32 0 C74.53 0, 117.06 0, 173 0 M173 0 C194.33 0, 205 10.67, 205 32 M173 0 C194.33 0, 205 10.67, 205 32 M205 32 C205 60.55, 205 89.11, 205 142 M205 32 C205 70.6, 205 109.21, 205 142 M205 142 C205 163.33, 194.33 174, 173 174 M205 142 C205 163.33, 194.33 174, 173 174 M173 174 C130.49 174, 87.99 174, 32 174 M173 174 C144.18 174, 115.36 174, 32 174 M32 174 C10.67 174, 0 163.33, 0 142 M32 174 C10.67 174, 0 163.33, 0 142 M0 142 C0 106.25, 0 70.5, 0 32 M0 142 C0 106.66, 0 71.31, 0 32 M0 32 C0 10.67, 10.67 0, 32 0 M0 32 C0 10.67, 10.67 0, 32 0" stroke="#1e1e1e" stroke-width="4" fill="none"></path></g><g stroke-linecap="round"><g transform="translate(619.4831472079429 475.43161732070945) rotate(0 -108.2098472911527 47.232661957638584)"><path d="M0 0 C-36.07 15.74, -180.35 78.72, -216.42 94.47 M0 0 C-36.07 15.74, -180.35 78.72, -216.42 94.47" stroke="#1e1e1e" stroke-width="4" fill="none"></path></g><g transform="translate(619.4831472079429 475.43161732070945) rotate(0 -108.2098472911527 47.232661957638584)"><path d="M-198.31 77.23 C-204.47 83.09, -210.63 88.96, -216.42 94.47 M-198.31 77.23 C-204.97 83.57, -211.63 89.91, -216.42 94.47" stroke="#1e1e1e" stroke-width="4" fill="none"></path></g><g transform="translate(619.4831472079429 475.43161732070945) rotate(0 -108.2098472911527 47.232661957638584)"><path d="M-191.47 92.9 C-199.96 93.44, -208.45 93.97, -216.42 94.47 M-191.47 92.9 C-200.65 93.48, -209.82 94.05, -216.42 94.47" stroke="#1e1e1e" stroke-width="4" fill="none"></path></g></g><mask></mask><g stroke-linecap="round"><g transform="translate(821.046794311841 473.8126387337852) rotate(0 59.91691683276861 52.47280594312659)"><path d="M0 0 C19.97 17.49, 99.86 87.45, 119.83 104.95 M0 0 C19.97 17.49, 99.86 87.45, 119.83 104.95" stroke="#1e1e1e" stroke-width="4" fill="none"></path></g><g transform="translate(821.046794311841 473.8126387337852) rotate(0 59.91691683276861 52.47280594312659)"><path d="M96.53 95.9 C102.35 98.16, 108.18 100.42, 119.83 104.95 M96.53 95.9 C105.45 99.36, 114.36 102.82, 119.83 104.95" stroke="#1e1e1e" stroke-width="4" fill="none"></path></g><g transform="translate(821.046794311841 473.8126387337852) rotate(0 59.91691683276861 52.47280594312659)"><path d="M107.79 83.04 C110.8 88.51, 113.81 93.99, 119.83 104.95 M107.79 83.04 C112.4 91.42, 117.01 99.8, 119.83 104.95" stroke="#1e1e1e" stroke-width="4" fill="none"></path></g></g><mask></mask><g stroke-linecap="round" transform="translate(232.7855080704586 567.5453737496061) rotate(0 84 67.5)"><path d="M32 0 C55.88 0, 79.77 0, 136 0 M32 0 C71.33 0, 110.66 0, 136 0 M136 0 C157.33 0, 168 10.67, 168 32 M136 0 C157.33 0, 168 10.67, 168 32 M168 32 C168 47.51, 168 63.02, 168 103 M168 32 C168 51.53, 168 71.06, 168 103 M168 103 C168 124.33, 157.33 135, 136 135 M168 103 C168 124.33, 157.33 135, 136 135 M136 135 C112.9 135, 89.81 135, 32 135 M136 135 C111.11 135, 86.23 135, 32 135 M32 135 C10.67 135, 0 124.33, 0 103 M32 135 C10.67 135, 0 124.33, 0 103 M0 103 C0 74.68, 0 46.37, 0 32 M0 103 C0 82.1, 0 61.19, 0 32 M0 32 C0 10.67, 10.67 0, 32 0 M0 32 C0 10.67, 10.67 0, 32 0" stroke="#1e1e1e" stroke-width="4" fill="none"></path></g><g transform="translate(253.17092600869103 572.5453737496061) rotate(0 63.61458206176758 62.5)"><text x="63.61458206176758" y="0" font-family="Virgil, Segoe UI Emoji" font-size="20px" fill="#1e1e1e" text-anchor="middle" style="white-space: pre;" direction="ltr" dominant-baseline="text-before-edge">NODE 7</text><text x="63.61458206176758" y="25" font-family="Virgil, Segoe UI Emoji" font-size="20px" fill="#1e1e1e" text-anchor="middle" style="white-space: pre;" direction="ltr" dominant-baseline="text-before-edge"></text><text x="63.61458206176758" y="50" font-family="Virgil, Segoe UI Emoji" font-size="20px" fill="#1e1e1e" text-anchor="middle" style="white-space: pre;" direction="ltr" dominant-baseline="text-before-edge">X1 = 35</text><text x="63.61458206176758" y="75" font-family="Virgil, Segoe UI Emoji" font-size="20px" fill="#1e1e1e" text-anchor="middle" style="white-space: pre;" direction="ltr" dominant-baseline="text-before-edge">x2=12.5</text><text x="63.61458206176758" y="100" font-family="Virgil, Segoe UI Emoji" font-size="20px" fill="#1e1e1e" text-anchor="middle" style="white-space: pre;" direction="ltr" dominant-baseline="text-before-edge">OBJ = 4250</text></g><g stroke-linecap="round" transform="translate(857.8806279773783 586.2582506200383) rotate(0 84 67.5)"><path d="M32 0 C71.66 0, 111.31 0, 136 0 M32 0 C68.4 0, 104.8 0, 136 0 M136 0 C157.33 0, 168 10.67, 168 32 M136 0 C157.33 0, 168 10.67, 168 32 M168 32 C168 53.09, 168 74.19, 168 103 M168 32 C168 55.89, 168 79.78, 168 103 M168 103 C168 124.33, 157.33 135, 136 135 M168 103 C168 124.33, 157.33 135, 136 135 M136 135 C101.09 135, 66.18 135, 32 135 M136 135 C113.06 135, 90.11 135, 32 135 M32 135 C10.67 135, 0 124.33, 0 103 M32 135 C10.67 135, 0 124.33, 0 103 M0 103 C0 79.85, 0 56.69, 0 32 M0 103 C0 83.04, 0 63.07, 0 32 M0 32 C0 10.67, 10.67 0, 32 0 M0 32 C0 10.67, 10.67 0, 32 0" stroke="#1e1e1e" stroke-width="4" fill="none"></path></g><g transform="translate(876.7972921009134 591.2582506200383) rotate(0 65.08333587646484 62.5)"><text x="65.08333587646484" y="0" font-family="Virgil, Segoe UI Emoji" font-size="20px" fill="#1e1e1e" text-anchor="middle" style="white-space: pre;" direction="ltr" dominant-baseline="text-before-edge">NODE 2</text><text x="65.08333587646484" y="25" font-family="Virgil, Segoe UI Emoji" font-size="20px" fill="#1e1e1e" text-anchor="middle" style="white-space: pre;" direction="ltr" dominant-baseline="text-before-edge"></text><text x="65.08333587646484" y="50" font-family="Virgil, Segoe UI Emoji" font-size="20px" fill="#1e1e1e" text-anchor="middle" style="white-space: pre;" direction="ltr" dominant-baseline="text-before-edge">X1 = 34</text><text x="65.08333587646484" y="75" font-family="Virgil, Segoe UI Emoji" font-size="20px" fill="#1e1e1e" text-anchor="middle" style="white-space: pre;" direction="ltr" dominant-baseline="text-before-edge">x2=14.67</text><text x="65.08333587646484" y="100" font-family="Virgil, Segoe UI Emoji" font-size="20px" fill="#1e1e1e" text-anchor="middle" style="white-space: pre;" direction="ltr" dominant-baseline="text-before-edge">OBJ = 4280</text></g><g transform="translate(880.8806279773783 498.7582506200384) rotate(0 34.11458206176758 12.5)"><text x="0" y="0" font-family="Virgil, Segoe UI Emoji" font-size="20px" fill="#1e1e1e" text-anchor="start" style="white-space: pre;" direction="ltr" dominant-baseline="text-before-edge">X1&lt;=34</text></g><g transform="translate(478.76004192916594 470.20086051306913) rotate(0 32.69791793823242 12.5)"><text x="0" y="0" font-family="Virgil, Segoe UI Emoji" font-size="20px" fill="#1e1e1e" text-anchor="start" style="white-space: pre;" direction="ltr" dominant-baseline="text-before-edge">X1&gt;=35</text></g><g stroke-linecap="round"><g transform="translate(227.66708171944083 709.1523099572134) rotate(0 -50.50066864127609 64.11613137765983)"><path d="M0 0 C-16.83 21.37, -84.17 106.86, -101 128.23 M0 0 C-16.83 21.37, -84.17 106.86, -101 128.23" stroke="#1e1e1e" stroke-width="4" fill="none"></path></g><g transform="translate(227.66708171944083 709.1523099572134) rotate(0 -50.50066864127609 64.11613137765983)"><path d="M-93.18 104.49 C-95.42 111.29, -97.66 118.09, -101 128.23 M-93.18 104.49 C-94.89 109.67, -96.6 114.86, -101 128.23" stroke="#1e1e1e" stroke-width="4" fill="none"></path></g><g transform="translate(227.66708171944083 709.1523099572134) rotate(0 -50.50066864127609 64.11613137765983)"><path d="M-79.75 115.07 C-85.84 118.84, -91.93 122.61, -101 128.23 M-79.75 115.07 C-84.39 117.94, -89.03 120.82, -101 128.23" stroke="#1e1e1e" stroke-width="4" fill="none"></path></g></g><mask></mask><g stroke-linecap="round"><g transform="translate(391.56410135201713 714.7620545490774) rotate(0 53.538263320057354 57.509863461684404)"><path d="M0 0 C17.85 19.17, 89.23 95.85, 107.08 115.02 M0 0 C17.85 19.17, 89.23 95.85, 107.08 115.02" stroke="#1e1e1e" stroke-width="4" fill="none"></path></g><g transform="translate(391.56410135201713 714.7620545490774) rotate(0 53.538263320057354 57.509863461684404)"><path d="M84.81 103.65 C91.81 107.23, 98.81 110.8, 107.08 115.02 M84.81 103.65 C90.43 106.52, 96.04 109.38, 107.08 115.02" stroke="#1e1e1e" stroke-width="4" fill="none"></path></g><g transform="translate(391.56410135201713 714.7620545490774) rotate(0 53.538263320057354 57.509863461684404)"><path d="M97.33 92 C100.39 99.24, 103.46 106.48, 107.08 115.02 M97.33 92 C99.79 97.8, 102.24 103.61, 107.08 115.02" stroke="#1e1e1e" stroke-width="4" fill="none"></path></g></g><mask></mask><g stroke-linecap="round" transform="translate(12.481075313180611 846.6625172677122) rotate(0 84 67.5)"><path d="M32 0 C61.03 0, 90.07 0, 136 0 M32 0 C56.18 0, 80.35 0, 136 0 M136 0 C157.33 0, 168 10.67, 168 32 M136 0 C157.33 0, 168 10.67, 168 32 M168 32 C168 55.45, 168 78.91, 168 103 M168 32 C168 48.73, 168 65.46, 168 103 M168 103 C168 124.33, 157.33 135, 136 135 M168 103 C168 124.33, 157.33 135, 136 135 M136 135 C95.51 135, 55.02 135, 32 135 M136 135 C111.17 135, 86.34 135, 32 135 M32 135 C10.67 135, 0 124.33, 0 103 M32 135 C10.67 135, 0 124.33, 0 103 M0 103 C0 75.86, 0 48.73, 0 32 M0 103 C0 75.31, 0 47.62, 0 32 M0 32 C0 10.67, 10.67 0, 32 0 M0 32 C0 10.67, 10.67 0, 32 0" stroke="#1e1e1e" stroke-width="4" fill="none"></path></g><g transform="translate(34.02274325141303 876.6625172677122) rotate(0 62.45833206176758 37.5)"><text x="62.45833206176758" y="0" font-family="Virgil, Segoe UI Emoji" font-size="20px" fill="#1e1e1e" text-anchor="middle" style="white-space: pre;" direction="ltr" dominant-baseline="text-before-edge">NODE 8</text><text x="62.45833206176758" y="25" font-family="Virgil, Segoe UI Emoji" font-size="20px" fill="#1e1e1e" text-anchor="middle" style="white-space: pre;" direction="ltr" dominant-baseline="text-before-edge"></text><text x="62.45833206176758" y="50" font-family="Virgil, Segoe UI Emoji" font-size="20px" fill="#1e1e1e" text-anchor="middle" style="white-space: pre;" direction="ltr" dominant-baseline="text-before-edge">INFEASIBLE</text></g><g stroke-linecap="round" transform="translate(415.02929960018855 843.6715042483415) rotate(0 84 67.5)"><path d="M32 0 C64.59 0, 97.18 0, 136 0 M32 0 C63.54 0, 95.08 0, 136 0 M136 0 C157.33 0, 168 10.67, 168 32 M136 0 C157.33 0, 168 10.67, 168 32 M168 32 C168 58.68, 168 85.37, 168 103 M168 32 C168 50.22, 168 68.45, 168 103 M168 103 C168 124.33, 157.33 135, 136 135 M168 103 C168 124.33, 157.33 135, 136 135 M136 135 C106.98 135, 77.96 135, 32 135 M136 135 C98.11 135, 60.22 135, 32 135 M32 135 C10.67 135, 0 124.33, 0 103 M32 135 C10.67 135, 0 124.33, 0 103 M0 103 C0 86.88, 0 70.76, 0 32 M0 103 C0 81.73, 0 60.46, 0 32 M0 32 C0 10.67, 10.67 0, 32 0 M0 32 C0 10.67, 10.67 0, 32 0" stroke="#868e96" stroke-width="4" fill="none"></path></g><g transform="translate(435.195967538421 848.6715042483415) rotate(0 63.83333206176758 62.5)"><text x="63.83333206176758" y="0" font-family="Virgil, Segoe UI Emoji" font-size="20px" fill="#868e96" text-anchor="middle" style="white-space: pre;" direction="ltr" dominant-baseline="text-before-edge">NODE 9</text><text x="63.83333206176758" y="25" font-family="Virgil, Segoe UI Emoji" font-size="20px" fill="#868e96" text-anchor="middle" style="white-space: pre;" direction="ltr" dominant-baseline="text-before-edge"></text><text x="63.83333206176758" y="50" font-family="Virgil, Segoe UI Emoji" font-size="20px" fill="#868e96" text-anchor="middle" style="white-space: pre;" direction="ltr" dominant-baseline="text-before-edge">X1 = 35.2</text><text x="63.83333206176758" y="75" font-family="Virgil, Segoe UI Emoji" font-size="20px" fill="#868e96" text-anchor="middle" style="white-space: pre;" direction="ltr" dominant-baseline="text-before-edge">x2=12</text><text x="63.83333206176758" y="100" font-family="Virgil, Segoe UI Emoji" font-size="20px" fill="#868e96" text-anchor="middle" style="white-space: pre;" direction="ltr" dominant-baseline="text-before-edge">OBJ = 4240</text></g><g transform="translate(437.4629225125901 742.7583783060219) rotate(0 35.15625 12.499999999999972)"><text x="0" y="0" font-family="Virgil, Segoe UI Emoji" font-size="20px" fill="#1e1e1e" text-anchor="start" style="white-space: pre;" direction="ltr" dominant-baseline="text-before-edge">X2&lt;=12</text></g><g transform="translate(115.19799550188623 734.3365527737124) rotate(0 33.64583206176758 25.00000000000003)"><text x="0" y="0" font-family="Virgil, Segoe UI Emoji" font-size="20px" fill="#1e1e1e" text-anchor="start" style="white-space: pre;" direction="ltr" dominant-baseline="text-before-edge">X2&gt;=13</text><text x="0" y="25" font-family="Virgil, Segoe UI Emoji" font-size="20px" fill="#1e1e1e" text-anchor="start" style="white-space: pre;" direction="ltr" dominant-baseline="text-before-edge"></text></g><g stroke-linecap="round"><g transform="translate(869.8493041997324 723.9065004590209) rotate(0 -70.60855406008113 56.89334439435021)"><path d="M0 0 C-23.54 18.96, -117.68 94.82, -141.22 113.79 M0 0 C-23.54 18.96, -117.68 94.82, -141.22 113.79" stroke="#1e1e1e" stroke-width="4" fill="none"></path></g><g transform="translate(869.8493041997324 723.9065004590209) rotate(0 -70.60855406008113 56.89334439435021)"><path d="M-128.29 92.39 C-130.95 96.8, -133.62 101.21, -141.22 113.79 M-128.29 92.39 C-133.1 100.35, -137.91 108.32, -141.22 113.79" stroke="#1e1e1e" stroke-width="4" fill="none"></path></g><g transform="translate(869.8493041997324 723.9065004590209) rotate(0 -70.60855406008113 56.89334439435021)"><path d="M-117.56 105.71 C-122.44 107.37, -127.32 109.04, -141.22 113.79 M-117.56 105.71 C-126.36 108.71, -135.17 111.72, -141.22 113.79" stroke="#1e1e1e" stroke-width="4" fill="none"></path></g></g><mask></mask><g stroke-linecap="round"><g transform="translate(1028.6386603278586 720.1436388300621) rotate(0 52.36723324711784 51.139545923249074)"><path d="M0 0 C17.46 17.05, 87.28 85.23, 104.73 102.28 M0 0 C17.46 17.05, 87.28 85.23, 104.73 102.28" stroke="#1e1e1e" stroke-width="4" fill="none"></path></g><g transform="translate(1028.6386603278586 720.1436388300621) rotate(0 52.36723324711784 51.139545923249074)"><path d="M81.95 91.98 C87.06 94.29, 92.16 96.6, 104.73 102.28 M81.95 91.98 C89.79 95.52, 97.62 99.06, 104.73 102.28" stroke="#1e1e1e" stroke-width="4" fill="none"></path></g><g transform="translate(1028.6386603278586 720.1436388300621) rotate(0 52.36723324711784 51.139545923249074)"><path d="M93.9 79.75 C96.33 84.8, 98.76 89.85, 104.73 102.28 M93.9 79.75 C97.63 87.49, 101.35 95.24, 104.73 102.28" stroke="#1e1e1e" stroke-width="4" fill="none"></path></g></g><mask></mask><g stroke-linecap="round" transform="translate(659.7313688188615 845.6931892477214) rotate(0 84 67.5)"><path d="M32 0 C53.05 0, 74.09 0, 136 0 M32 0 C71.02 0, 110.05 0, 136 0 M136 0 C157.33 0, 168 10.67, 168 32 M136 0 C157.33 0, 168 10.67, 168 32 M168 32 C168 48.62, 168 65.23, 168 103 M168 32 C168 52.93, 168 73.86, 168 103 M168 103 C168 124.33, 157.33 135, 136 135 M168 103 C168 124.33, 157.33 135, 136 135 M136 135 C96.89 135, 57.78 135, 32 135 M136 135 C104.49 135, 72.97 135, 32 135 M32 135 C10.67 135, 0 124.33, 0 103 M32 135 C10.67 135, 0 124.33, 0 103 M0 103 C0 85.48, 0 67.96, 0 32 M0 103 C0 82.78, 0 62.57, 0 32 M0 32 C0 10.67, 10.67 0, 32 0 M0 32 C0 10.67, 10.67 0, 32 0" stroke="#1e1e1e" stroke-width="4" fill="none"></path></g><g transform="translate(681.6167867570939 850.6931892477214) rotate(0 62.11458206176758 62.5)"><text x="62.11458206176758" y="0" font-family="Virgil, Segoe UI Emoji" font-size="20px" fill="#1e1e1e" text-anchor="middle" style="white-space: pre;" direction="ltr" dominant-baseline="text-before-edge">NODE 3</text><text x="62.11458206176758" y="25" font-family="Virgil, Segoe UI Emoji" font-size="20px" fill="#1e1e1e" text-anchor="middle" style="white-space: pre;" direction="ltr" dominant-baseline="text-before-edge"></text><text x="62.11458206176758" y="50" font-family="Virgil, Segoe UI Emoji" font-size="20px" fill="#1e1e1e" text-anchor="middle" style="white-space: pre;" direction="ltr" dominant-baseline="text-before-edge">X1 = 33.75</text><text x="62.11458206176758" y="75" font-family="Virgil, Segoe UI Emoji" font-size="20px" fill="#1e1e1e" text-anchor="middle" style="white-space: pre;" direction="ltr" dominant-baseline="text-before-edge">x2=15</text><text x="62.11458206176758" y="100" font-family="Virgil, Segoe UI Emoji" font-size="20px" fill="#1e1e1e" text-anchor="middle" style="white-space: pre;" direction="ltr" dominant-baseline="text-before-edge">OBJ = 4275</text></g><g stroke-linecap="round" transform="translate(1043.1104247781836 829.9227306765604) rotate(0 84 67.5)"><path d="M32 0 C63.52 0, 95.05 0, 136 0 M32 0 C65.02 0, 98.04 0, 136 0 M136 0 C157.33 0, 168 10.67, 168 32 M136 0 C157.33 0, 168 10.67, 168 32 M168 32 C168 53.23, 168 74.45, 168 103 M168 32 C168 58.95, 168 85.9, 168 103 M168 103 C168 124.33, 157.33 135, 136 135 M168 103 C168 124.33, 157.33 135, 136 135 M136 135 C98.03 135, 60.07 135, 32 135 M136 135 C112.89 135, 89.78 135, 32 135 M32 135 C10.67 135, 0 124.33, 0 103 M32 135 C10.67 135, 0 124.33, 0 103 M0 103 C0 85.16, 0 67.31, 0 32 M0 103 C0 85.56, 0 68.12, 0 32 M0 32 C0 10.67, 10.67 0, 32 0 M0 32 C0 10.67, 10.67 0, 32 0" stroke="#1e1e1e" stroke-width="4" fill="none"></path></g><g transform="translate(1063.277092716416 834.9227306765604) rotate(0 63.83333206176758 62.5)"><text x="63.83333206176758" y="0" font-family="Virgil, Segoe UI Emoji" font-size="20px" fill="#1e1e1e" text-anchor="middle" style="white-space: pre;" direction="ltr" dominant-baseline="text-before-edge">NODE 4</text><text x="63.83333206176758" y="25" font-family="Virgil, Segoe UI Emoji" font-size="20px" fill="#1e1e1e" text-anchor="middle" style="white-space: pre;" direction="ltr" dominant-baseline="text-before-edge"></text><text x="63.83333206176758" y="50" font-family="Virgil, Segoe UI Emoji" font-size="20px" fill="#1e1e1e" text-anchor="middle" style="white-space: pre;" direction="ltr" dominant-baseline="text-before-edge">X1 = 34</text><text x="63.83333206176758" y="75" font-family="Virgil, Segoe UI Emoji" font-size="20px" fill="#1e1e1e" text-anchor="middle" style="white-space: pre;" direction="ltr" dominant-baseline="text-before-edge">x2=14</text><text x="63.83333206176758" y="100" font-family="Virgil, Segoe UI Emoji" font-size="20px" fill="#1e1e1e" text-anchor="middle" style="white-space: pre;" direction="ltr" dominant-baseline="text-before-edge">OBJ = 4240</text></g><g transform="translate(1097.4926615700615 743.0669948412099) rotate(0 34.42708206176758 12.5)"><text x="0" y="0" font-family="Virgil, Segoe UI Emoji" font-size="20px" fill="#1e1e1e" text-anchor="start" style="white-space: pre;" direction="ltr" dominant-baseline="text-before-edge">X2&lt;=14</text></g><g transform="translate(736.8893979039867 726.9775019778263) rotate(0 33.01041793823242 25)"><text x="0" y="0" font-family="Virgil, Segoe UI Emoji" font-size="20px" fill="#1e1e1e" text-anchor="start" style="white-space: pre;" direction="ltr" dominant-baseline="text-before-edge">X2&gt;=15</text><text x="0" y="25" font-family="Virgil, Segoe UI Emoji" font-size="20px" fill="#1e1e1e" text-anchor="start" style="white-space: pre;" direction="ltr" dominant-baseline="text-before-edge"></text></g><g stroke-linecap="round"><g transform="translate(832.0516689587495 978.7949067561444) rotate(0 52.694973141252206 72.33347281459345)"><path d="M0 0 C17.56 24.11, 87.82 120.56, 105.39 144.67 M0 0 C17.56 24.11, 87.82 120.56, 105.39 144.67" stroke="#1e1e1e" stroke-width="4" fill="none"></path></g><g transform="translate(832.0516689587495 978.7949067561444) rotate(0 52.694973141252206 72.33347281459345)"><path d="M84.65 130.71 C92.76 136.17, 100.88 141.63, 105.39 144.67 M84.65 130.71 C89.61 134.05, 94.57 137.39, 105.39 144.67" stroke="#1e1e1e" stroke-width="4" fill="none"></path></g><g transform="translate(832.0516689587495 978.7949067561444) rotate(0 52.694973141252206 72.33347281459345)"><path d="M98.47 120.64 C101.18 130.04, 103.88 139.44, 105.39 144.67 M98.47 120.64 C100.12 126.39, 101.78 132.14, 105.39 144.67" stroke="#1e1e1e" stroke-width="4" fill="none"></path></g></g><mask></mask><g stroke-linecap="round" transform="translate(871.2758372268293 1145.454366401313) rotate(0 84 77.00000000000006)"><path d="M32 0 C58.46 0, 84.92 0, 136 0 M32 0 C58.96 0, 85.91 0, 136 0 M136 0 C157.33 0, 168 10.67, 168 32 M136 0 C157.33 0, 168 10.67, 168 32 M168 32 C168 54.78, 168 77.56, 168 122 M168 32 C168 63.94, 168 95.87, 168 122 M168 122 C168 143.33, 157.33 154, 136 154 M168 122 C168 143.33, 157.33 154, 136 154 M136 154 C107.58 154, 79.16 154, 32 154 M136 154 C102.68 154, 69.37 154, 32 154 M32 154 C10.67 154, 0 143.33, 0 122 M32 154 C10.67 154, 0 143.33, 0 122 M0 122 C0 89.56, 0 57.13, 0 32 M0 122 C0 101.4, 0 80.79, 0 32 M0 32 C0 10.67, 10.67 0, 32 0 M0 32 C0 10.67, 10.67 0, 32 0" stroke="#e03131" stroke-width="4" fill="none"></path></g><g transform="translate(879.0362513503644 1159.954366401313) rotate(0 76.23958587646484 62.50000000000006)"><text x="76.23958587646484" y="0" font-family="Virgil, Segoe UI Emoji" font-size="20px" fill="#e03131" text-anchor="middle" style="white-space: pre;" direction="ltr" dominant-baseline="text-before-edge">NODE 6*</text><text x="76.23958587646484" y="25" font-family="Virgil, Segoe UI Emoji" font-size="20px" fill="#e03131" text-anchor="middle" style="white-space: pre;" direction="ltr" dominant-baseline="text-before-edge">optimal solution</text><text x="76.23958587646484" y="50" font-family="Virgil, Segoe UI Emoji" font-size="20px" fill="#e03131" text-anchor="middle" style="white-space: pre;" direction="ltr" dominant-baseline="text-before-edge">X1 = 33</text><text x="76.23958587646484" y="75" font-family="Virgil, Segoe UI Emoji" font-size="20px" fill="#e03131" text-anchor="middle" style="white-space: pre;" direction="ltr" dominant-baseline="text-before-edge">x2=16</text><text x="76.23958587646484" y="100" font-family="Virgil, Segoe UI Emoji" font-size="20px" fill="#e03131" text-anchor="middle" style="white-space: pre;" direction="ltr" dominant-baseline="text-before-edge">OBJ = 4260</text></g><g stroke-linecap="round"><g transform="translate(431.11044451028056 985.7838118201744) rotate(0 -74.0723860285778 68.05882898224206)"><path d="M0 0 C-24.69 22.69, -123.45 113.43, -148.14 136.12 M0 0 C-24.69 22.69, -123.45 113.43, -148.14 136.12" stroke="#868e96" stroke-width="4" fill="none"></path></g><g transform="translate(431.11044451028056 985.7838118201744) rotate(0 -74.0723860285778 68.05882898224206)"><path d="M-136.63 113.93 C-139.58 119.62, -142.54 125.31, -148.14 136.12 M-136.63 113.93 C-139.84 120.11, -143.04 126.28, -148.14 136.12" stroke="#868e96" stroke-width="4" fill="none"></path></g><g transform="translate(431.11044451028056 985.7838118201744) rotate(0 -74.0723860285778 68.05882898224206)"><path d="M-125.06 126.52 C-130.98 128.98, -136.9 131.44, -148.14 136.12 M-125.06 126.52 C-131.49 129.19, -137.92 131.86, -148.14 136.12" stroke="#868e96" stroke-width="4" fill="none"></path></g></g><mask></mask><g stroke-linecap="round"><g transform="translate(512.781165726923 992.8892288453078) rotate(0 -0.012881294593910297 69.65238157344663)"><path d="M0 0 C0 23.22, -0.02 116.09, -0.03 139.3 M0 0 C0 23.22, -0.02 116.09, -0.03 139.3" stroke="#868e96" stroke-width="4" fill="none"></path></g><g transform="translate(512.781165726923 992.8892288453078) rotate(0 -0.012881294593910297 69.65238157344663)"><path d="M-8.57 115.81 C-6.45 121.64, -4.33 127.47, -0.03 139.3 M-8.57 115.81 C-5.8 123.43, -3.03 131.05, -0.03 139.3" stroke="#868e96" stroke-width="4" fill="none"></path></g><g transform="translate(512.781165726923 992.8892288453078) rotate(0 -0.012881294593910297 69.65238157344663)"><path d="M8.53 115.81 C6.41 121.64, 4.28 127.48, -0.03 139.3 M8.53 115.81 C5.75 123.43, 2.98 131.06, -0.03 139.3" stroke="#868e96" stroke-width="4" fill="none"></path></g></g><mask></mask><g stroke-linecap="round" transform="translate(201.63289031302213 1143.9588598916278) rotate(0 84 67.49999999999994)"><path d="M32 0 C60.33 0, 88.67 0, 136 0 M32 0 C63.85 0, 95.71 0, 136 0 M136 0 C157.33 0, 168 10.67, 168 32 M136 0 C157.33 0, 168 10.67, 168 32 M168 32 C168 50.77, 168 69.55, 168 103 M168 32 C168 53.19, 168 74.39, 168 103 M168 103 C168 124.33, 157.33 135, 136 135 M168 103 C168 124.33, 157.33 135, 136 135 M136 135 C107.54 135, 79.08 135, 32 135 M136 135 C114.07 135, 92.15 135, 32 135 M32 135 C10.67 135, 0 124.33, 0 103 M32 135 C10.67 135, 0 124.33, 0 103 M0 103 C0 76.01, 0 49.01, 0 32 M0 103 C0 80.16, 0 57.31, 0 32 M0 32 C0 10.67, 10.67 0, 32 0 M0 32 C0 10.67, 10.67 0, 32 0" stroke="#868e96" stroke-width="4" fill="none"></path></g><g transform="translate(221.32039031302213 1148.9588598916278) rotate(0 64.3125 62.49999999999994)"><text x="64.3125" y="0" font-family="Virgil, Segoe UI Emoji" font-size="20px" fill="#868e96" text-anchor="middle" style="white-space: pre;" direction="ltr" dominant-baseline="text-before-edge">NODE 10</text><text x="64.3125" y="25" font-family="Virgil, Segoe UI Emoji" font-size="20px" fill="#868e96" text-anchor="middle" style="white-space: pre;" direction="ltr" dominant-baseline="text-before-edge"></text><text x="64.3125" y="50" font-family="Virgil, Segoe UI Emoji" font-size="20px" fill="#868e96" text-anchor="middle" style="white-space: pre;" direction="ltr" dominant-baseline="text-before-edge">X1 = 36</text><text x="64.3125" y="75" font-family="Virgil, Segoe UI Emoji" font-size="20px" fill="#868e96" text-anchor="middle" style="white-space: pre;" direction="ltr" dominant-baseline="text-before-edge">x2=10</text><text x="64.3125" y="100" font-family="Virgil, Segoe UI Emoji" font-size="20px" fill="#868e96" text-anchor="middle" style="white-space: pre;" direction="ltr" dominant-baseline="text-before-edge">OBJ = 4200</text></g><g stroke-linecap="round" transform="translate(441.88215609229394 1147.357569648152) rotate(0 84 67.5)"><path d="M32 0 C59.27 0, 86.53 0, 136 0 M32 0 C53.99 0, 75.98 0, 136 0 M136 0 C157.33 0, 168 10.67, 168 32 M136 0 C157.33 0, 168 10.67, 168 32 M168 32 C168 50.7, 168 69.39, 168 103 M168 32 C168 47.47, 168 62.94, 168 103 M168 103 C168 124.33, 157.33 135, 136 135 M168 103 C168 124.33, 157.33 135, 136 135 M136 135 C94.86 135, 53.73 135, 32 135 M136 135 C112.68 135, 89.37 135, 32 135 M32 135 C10.67 135, 0 124.33, 0 103 M32 135 C10.67 135, 0 124.33, 0 103 M0 103 C0 77.84, 0 52.69, 0 32 M0 103 C0 81.95, 0 60.91, 0 32 M0 32 C0 10.67, 10.67 0, 32 0 M0 32 C0 10.67, 10.67 0, 32 0" stroke="#868e96" stroke-width="4" fill="none"></path></g><g transform="translate(461.31965609229394 1152.357569648152) rotate(0 64.5625 62.5)"><text x="64.5625" y="0" font-family="Virgil, Segoe UI Emoji" font-size="20px" fill="#868e96" text-anchor="middle" style="white-space: pre;" direction="ltr" dominant-baseline="text-before-edge">NODE 11</text><text x="64.5625" y="25" font-family="Virgil, Segoe UI Emoji" font-size="20px" fill="#868e96" text-anchor="middle" style="white-space: pre;" direction="ltr" dominant-baseline="text-before-edge"></text><text x="64.5625" y="50" font-family="Virgil, Segoe UI Emoji" font-size="20px" fill="#868e96" text-anchor="middle" style="white-space: pre;" direction="ltr" dominant-baseline="text-before-edge">X1 = 35</text><text x="64.5625" y="75" font-family="Virgil, Segoe UI Emoji" font-size="20px" fill="#868e96" text-anchor="middle" style="white-space: pre;" direction="ltr" dominant-baseline="text-before-edge">x2=12</text><text x="64.5625" y="100" font-family="Virgil, Segoe UI Emoji" font-size="20px" fill="#868e96" text-anchor="middle" style="white-space: pre;" direction="ltr" dominant-baseline="text-before-edge">OBJ = 4220</text></g><g transform="translate(525.6571176532881 1042.6106100402953) rotate(0 33.89583206176758 12.5)"><text x="0" y="0" font-family="Virgil, Segoe UI Emoji" font-size="20px" fill="#868e96" text-anchor="start" style="white-space: pre;" direction="ltr" dominant-baseline="text-before-edge">X1&lt;=35</text></g><g transform="translate(289.0144758395793 1013.7416716251219) rotate(0 32.91666793823242 25)"><text x="0" y="0" font-family="Virgil, Segoe UI Emoji" font-size="20px" fill="#868e96" text-anchor="start" style="white-space: pre;" direction="ltr" dominant-baseline="text-before-edge">X1&gt;=36</text><text x="0" y="25" font-family="Virgil, Segoe UI Emoji" font-size="20px" fill="#868e96" text-anchor="start" style="white-space: pre;" direction="ltr" dominant-baseline="text-before-edge"></text></g><g stroke-linecap="round"><g transform="translate(733.265584184616 985.7062645629937) rotate(0 -0.7298876173789495 69.65238157344669)"><path d="M0 0 C-0.24 23.22, -1.22 116.09, -1.46 139.3 M0 0 C-0.24 23.22, -1.22 116.09, -1.46 139.3" stroke="#1e1e1e" stroke-width="4" fill="none"></path></g><g transform="translate(733.265584184616 985.7062645629937) rotate(0 -0.7298876173789495 69.65238157344669)"><path d="M-9.76 115.72 C-7.83 121.22, -5.89 126.72, -1.46 139.3 M-9.76 115.72 C-7.95 120.86, -6.14 126, -1.46 139.3" stroke="#1e1e1e" stroke-width="4" fill="none"></path></g><g transform="translate(733.265584184616 985.7062645629937) rotate(0 -0.7298876173789495 69.65238157344669)"><path d="M7.34 115.9 C5.29 121.36, 3.23 126.82, -1.46 139.3 M7.34 115.9 C5.42 121, 3.5 126.1, -1.46 139.3" stroke="#1e1e1e" stroke-width="4" fill="none"></path></g></g><mask></mask><g stroke-linecap="round" transform="translate(654.6620798267935 1143.7678818682812) rotate(0 84 67.50000000000006)"><path d="M32 0 C52.99 0, 73.97 0, 136 0 M32 0 C66.48 0, 100.95 0, 136 0 M136 0 C157.33 0, 168 10.67, 168 32 M136 0 C157.33 0, 168 10.67, 168 32 M168 32 C168 46.81, 168 61.61, 168 103 M168 32 C168 47.99, 168 63.99, 168 103 M168 103 C168 124.33, 157.33 135, 136 135 M168 103 C168 124.33, 157.33 135, 136 135 M136 135 C95.37 135, 54.74 135, 32 135 M136 135 C101.51 135, 67.02 135, 32 135 M32 135 C10.67 135, 0 124.33, 0 103 M32 135 C10.67 135, 0 124.33, 0 103 M0 103 C0 79.79, 0 56.58, 0 32 M0 103 C0 77.48, 0 51.96, 0 32 M0 32 C0 10.67, 10.67 0, 32 0 M0 32 C0 10.67, 10.67 0, 32 0" stroke="#1e1e1e" stroke-width="4" fill="none"></path></g><g transform="translate(676.2037477650259 1173.7678818682812) rotate(0 62.45833206176758 37.5)"><text x="62.45833206176758" y="0" font-family="Virgil, Segoe UI Emoji" font-size="20px" fill="#1e1e1e" text-anchor="middle" style="white-space: pre;" direction="ltr" dominant-baseline="text-before-edge">NODE 5</text><text x="62.45833206176758" y="25" font-family="Virgil, Segoe UI Emoji" font-size="20px" fill="#1e1e1e" text-anchor="middle" style="white-space: pre;" direction="ltr" dominant-baseline="text-before-edge"></text><text x="62.45833206176758" y="50" font-family="Virgil, Segoe UI Emoji" font-size="20px" fill="#1e1e1e" text-anchor="middle" style="white-space: pre;" direction="ltr" dominant-baseline="text-before-edge">INFEASIBLE</text></g><g transform="translate(658.7777703955275 1033.9130342501871) rotate(0 32.91666793823242 12.5)"><text x="0" y="0" font-family="Virgil, Segoe UI Emoji" font-size="20px" fill="#1e1e1e" text-anchor="start" style="white-space: pre;" direction="ltr" dominant-baseline="text-before-edge">X1&gt;=34</text></g><g transform="translate(1060.704107731907 982.5158064912362) rotate(0 78.32291412353516 25)"><text x="0" y="0" font-family="Virgil, Segoe UI Emoji" font-size="20px" fill="#1e1e1e" text-anchor="start" style="white-space: pre;" direction="ltr" dominant-baseline="text-before-edge">Integer solution</text><text x="0" y="25" font-family="Virgil, Segoe UI Emoji" font-size="20px" fill="#1e1e1e" text-anchor="start" style="white-space: pre;" direction="ltr" dominant-baseline="text-before-edge">no branching</text></g><g transform="translate(880.1456291940501 1301.282891834393) rotate(0 78.32291412353516 25)"><text x="0" y="0" font-family="Virgil, Segoe UI Emoji" font-size="20px" fill="#1e1e1e" text-anchor="start" style="white-space: pre;" direction="ltr" dominant-baseline="text-before-edge">Integer solution</text><text x="0" y="25" font-family="Virgil, Segoe UI Emoji" font-size="20px" fill="#1e1e1e" text-anchor="start" style="white-space: pre;" direction="ltr" dominant-baseline="text-before-edge">no branching</text></g><g transform="translate(453.31214776425657 1311.506448275825) rotate(0 78.32291412353516 25)"><text x="0" y="0" font-family="Virgil, Segoe UI Emoji" font-size="20px" fill="#868e96" text-anchor="start" style="white-space: pre;" direction="ltr" dominant-baseline="text-before-edge">Integer solution</text><text x="0" y="25" font-family="Virgil, Segoe UI Emoji" font-size="20px" fill="#868e96" text-anchor="start" style="white-space: pre;" direction="ltr" dominant-baseline="text-before-edge">no branching</text></g><g transform="translate(218.17034961131662 1302.560836389572) rotate(0 78.32291412353516 25)"><text x="0" y="0" font-family="Virgil, Segoe UI Emoji" font-size="20px" fill="#868e96" text-anchor="start" style="white-space: pre;" direction="ltr" dominant-baseline="text-before-edge">Integer solution</text><text x="0" y="25" font-family="Virgil, Segoe UI Emoji" font-size="20px" fill="#868e96" text-anchor="start" style="white-space: pre;" direction="ltr" dominant-baseline="text-before-edge">no branching</text></g><g transform="translate(679.5083340309437 1317.8961710517206) rotate(0 57.75 12.5)"><text x="0" y="0" font-family="Virgil, Segoe UI Emoji" font-size="20px" fill="#1e1e1e" text-anchor="start" style="white-space: pre;" direction="ltr" dominant-baseline="text-before-edge">no branching</text></g><g transform="translate(73.88841611675764 998.1305867051747) rotate(0 57.75 12.5)"><text x="0" y="0" font-family="Virgil, Segoe UI Emoji" font-size="20px" fill="#1e1e1e" text-anchor="start" style="white-space: pre;" direction="ltr" dominant-baseline="text-before-edge">no branching</text></g><g transform="translate(897.4370951654143 1027.523311474292) rotate(0 34.53125 12.5)"><text x="0" y="0" font-family="Virgil, Segoe UI Emoji" font-size="20px" fill="#1e1e1e" text-anchor="start" style="white-space: pre;" direction="ltr" dominant-baseline="text-before-edge">X1&lt;=33</text></g><g transform="translate(866.4565353446955 342.26558434654584) rotate(0 98.6354141235351 37.5)"><text x="0" y="0" font-family="Virgil, Segoe UI Emoji" font-size="20px" fill="#1e1e1e" text-anchor="start" style="white-space: pre;" direction="ltr" dominant-baseline="text-before-edge">Incumbent -</text><text x="0" y="25" font-family="Virgil, Segoe UI Emoji" font-size="20px" fill="#1e1e1e" text-anchor="start" style="white-space: pre;" direction="ltr" dominant-baseline="text-before-edge">Best bound 4285.71</text><text x="0" y="50" font-family="Virgil, Segoe UI Emoji" font-size="20px" fill="#1e1e1e" text-anchor="start" style="white-space: pre;" direction="ltr" dominant-baseline="text-before-edge">Gap        -</text></g><g transform="translate(1077.0837035744837 620.4178894757645) rotate(0 88.51041412353516 37.5)"><text x="0" y="0" font-family="Virgil, Segoe UI Emoji" font-size="20px" fill="#1e1e1e" text-anchor="start" style="white-space: pre;" direction="ltr" dominant-baseline="text-before-edge">Incumbent - </text><text x="0" y="25" font-family="Virgil, Segoe UI Emoji" font-size="20px" fill="#1e1e1e" text-anchor="start" style="white-space: pre;" direction="ltr" dominant-baseline="text-before-edge">Best bound 4280</text><text x="0" y="50" font-family="Virgil, Segoe UI Emoji" font-size="20px" fill="#1e1e1e" text-anchor="start" style="white-space: pre;" direction="ltr" dominant-baseline="text-before-edge">Gap        -</text></g><g transform="translate(1243.2164957477564 858.1155767390626) rotate(0 102.11458587646484 37.5)"><text x="0" y="0" font-family="Virgil, Segoe UI Emoji" font-size="20px" fill="#1e1e1e" text-anchor="start" style="white-space: pre;" direction="ltr" dominant-baseline="text-before-edge">Incumbent - 4240 </text><text x="0" y="25" font-family="Virgil, Segoe UI Emoji" font-size="20px" fill="#1e1e1e" text-anchor="start" style="white-space: pre;" direction="ltr" dominant-baseline="text-before-edge">Best bound 4275</text><text x="0" y="50" font-family="Virgil, Segoe UI Emoji" font-size="20px" fill="#1e1e1e" text-anchor="start" style="white-space: pre;" direction="ltr" dominant-baseline="text-before-edge">Gap        - 0.08%</text></g><g transform="translate(836.8301272008273 874.7288559563899) rotate(0 85.54166412353516 37.5)"><text x="0" y="0" font-family="Virgil, Segoe UI Emoji" font-size="20px" fill="#1e1e1e" text-anchor="start" style="white-space: pre;" direction="ltr" dominant-baseline="text-before-edge">Incumbent -</text><text x="0" y="25" font-family="Virgil, Segoe UI Emoji" font-size="20px" fill="#1e1e1e" text-anchor="start" style="white-space: pre;" direction="ltr" dominant-baseline="text-before-edge">Best bound 4275</text><text x="0" y="50" font-family="Virgil, Segoe UI Emoji" font-size="20px" fill="#1e1e1e" text-anchor="start" style="white-space: pre;" direction="ltr" dominant-baseline="text-before-edge">Gap        -</text></g><g transform="translate(10 597.4148874825421) rotate(0 88.51041412353516 37.5)"><text x="0" y="0" font-family="Virgil, Segoe UI Emoji" font-size="20px" fill="#1e1e1e" text-anchor="start" style="white-space: pre;" direction="ltr" dominant-baseline="text-before-edge">Incumbent -</text><text x="0" y="25" font-family="Virgil, Segoe UI Emoji" font-size="20px" fill="#1e1e1e" text-anchor="start" style="white-space: pre;" direction="ltr" dominant-baseline="text-before-edge">Best bound 4280</text><text x="0" y="50" font-family="Virgil, Segoe UI Emoji" font-size="20px" fill="#1e1e1e" text-anchor="start" style="white-space: pre;" direction="ltr" dominant-baseline="text-before-edge">Gap        -</text></g><g transform="translate(1054.0807015812613 1176.3237709786392) rotate(0 88.91666412353516 37.5)"><text x="0" y="0" font-family="Virgil, Segoe UI Emoji" font-size="20px" fill="#1e1e1e" text-anchor="start" style="white-space: pre;" direction="ltr" dominant-baseline="text-before-edge">Incumbent - 4260</text><text x="0" y="25" font-family="Virgil, Segoe UI Emoji" font-size="20px" fill="#1e1e1e" text-anchor="start" style="white-space: pre;" direction="ltr" dominant-baseline="text-before-edge">Best bound 4260</text><text x="0" y="50" font-family="Virgil, Segoe UI Emoji" font-size="20px" fill="#1e1e1e" text-anchor="start" style="white-space: pre;" direction="ltr" dominant-baseline="text-before-edge">Gap        - 0%</text></g><g transform="translate(573.8072322086994 10) rotate(0 154.0416717529297 103.11478021393857)"><text x="0" y="0" font-family="Virgil, Segoe UI Emoji" font-size="27.497274723716952px" fill="#1e1e1e" text-anchor="start" style="white-space: pre;" direction="ltr" dominant-baseline="text-before-edge">max 100X1 + 60X2</text><text x="0" y="34.37159340464619" font-family="Virgil, Segoe UI Emoji" font-size="27.497274723716952px" fill="#1e1e1e" text-anchor="start" style="white-space: pre;" direction="ltr" dominant-baseline="text-before-edge">s.t.</text><text x="0" y="68.74318680929238" font-family="Virgil, Segoe UI Emoji" font-size="27.497274723716952px" fill="#1e1e1e" text-anchor="start" style="white-space: pre;" direction="ltr" dominant-baseline="text-before-edge">5X1 + 2X2 &lt;= 200</text><text x="0" y="103.11478021393857" font-family="Virgil, Segoe UI Emoji" font-size="27.497274723716952px" fill="#1e1e1e" text-anchor="start" style="white-space: pre;" direction="ltr" dominant-baseline="text-before-edge">4X1 + 3X2 &lt;= 180</text><text x="0" y="137.48637361858476" font-family="Virgil, Segoe UI Emoji" font-size="27.497274723716952px" fill="#1e1e1e" text-anchor="start" style="white-space: pre;" direction="ltr" dominant-baseline="text-before-edge">3X1 + 4X2 &lt;= 200</text><text x="0" y="171.85796702323097" font-family="Virgil, Segoe UI Emoji" font-size="27.497274723716952px" fill="#1e1e1e" text-anchor="start" style="white-space: pre;" direction="ltr" dominant-baseline="text-before-edge">X1,X2 &gt;= 0 and integer</text></g></svg>